#tb 0: 1/44100
#media_type 0: audio
#codec_id 0: pcm_s16le
#sample_rate 0: 44100
#channel_layout 0: 3
#channel_layout_name 0: stereo
0,          0,          0,    17920,    71680, 0x52373bc9
0,      17920,      17920,    17920,    71680, 0x1f854b27
0,      35840,      35840,    17920,    71680, 0x3d265a6d
0,      53760,      53760,    17920,    71680, 0x7e38d624
0,      71680,      71680,    17920,    71680, 0x003b7616
0,      89600,      89600,    17920,    71680, 0x9fed7ca7
0,     107520,     107520,    17920,    71680, 0x22af668c
0,     125440,     125440,    17920,    71680, 0xefd95c4a
0,     143360,     143360,    17920,    71680, 0x8b68142e
0,     161280,     161280,    17920,    71680, 0x0a0614fa
0,     179200,     179200,    17920,    71680, 0x22ababa3
0,     197120,     197120,    17920,    71680, 0xda4b1708
